<svg width="48" height="48" viewBox="0 0 48 48" fill="none" xmlns="http://www.w3.org/2000/svg">
<circle cx="24" cy="24" r="23" stroke="white" stroke-width="2"/>
<g clip-path="url(#clip0_128_1059)">
<g clip-path="url(#clip1_128_1059)">
<path d="M23.625 35L22.9633 35.7498L23.625 36.3337L24.2867 35.7498L23.625 35ZM31.25 22.625C31.25 23.5476 30.8192 24.7287 30.039 26.0636C29.2731 27.374 28.2377 28.7205 27.1805 29.9454C26.1265 31.1666 25.0696 32.2454 24.2747 33.0201C23.8779 33.4069 23.5477 33.7164 23.3178 33.9284C23.2028 34.0344 23.113 34.1159 23.0525 34.1704C23.0223 34.1976 22.9994 34.2181 22.9843 34.2315C22.9768 34.2382 22.9713 34.2432 22.9677 34.2463C22.966 34.2479 22.9647 34.249 22.964 34.2496C22.9636 34.25 22.9634 34.2502 22.9633 34.2503C22.9632 34.2503 22.9632 34.2503 22.9632 34.2503C22.9632 34.2503 22.9633 34.2502 23.625 35C24.2867 35.7498 24.2868 35.7497 24.287 35.7495C24.2871 35.7494 24.2873 35.7492 24.2875 35.749C24.2879 35.7487 24.2885 35.7482 24.2892 35.7476C24.2905 35.7464 24.2924 35.7447 24.2948 35.7426C24.2995 35.7384 24.3064 35.7323 24.3152 35.7245C24.3327 35.7088 24.3583 35.686 24.3912 35.6563C24.457 35.597 24.5525 35.5103 24.6734 35.3989C24.9152 35.176 25.2589 34.8537 25.6706 34.4524C26.4929 33.6511 27.5922 32.5294 28.6945 31.2522C29.7935 29.9788 30.9144 28.5292 31.7657 27.0728C32.6027 25.6407 33.25 24.0842 33.25 22.625H31.25ZM23.625 15C27.8362 15 31.25 18.4138 31.25 22.625H33.25C33.25 17.3093 28.9407 13 23.625 13V15ZM16 22.625C16 18.4138 19.4138 15 23.625 15V13C18.3093 13 14 17.3093 14 22.625H16ZM23.625 35C24.2867 34.2502 24.2868 34.2503 24.2868 34.2503C24.2868 34.2503 24.2868 34.2503 24.2867 34.2503C24.2866 34.2502 24.2864 34.25 24.286 34.2496C24.2853 34.249 24.284 34.2479 24.2823 34.2463C24.2787 34.2432 24.2732 34.2382 24.2657 34.2315C24.2506 34.2181 24.2277 34.1976 24.1975 34.1704C24.137 34.1159 24.0472 34.0344 23.9322 33.9284C23.7023 33.7164 23.3721 33.4069 22.9753 33.0201C22.1804 32.2454 21.1235 31.1666 20.0695 29.9454C19.0123 28.7205 17.9769 27.374 17.211 26.0636C16.4308 24.7287 16 23.5476 16 22.625H14C14 24.0842 14.6473 25.6407 15.4843 27.0728C16.3356 28.5292 17.4565 29.9788 18.5555 31.2522C19.6578 32.5294 20.7571 33.6511 21.5794 34.4524C21.9911 34.8537 22.3348 35.176 22.5766 35.3989C22.6975 35.5103 22.793 35.597 22.8588 35.6563C22.8917 35.686 22.9173 35.7088 22.9348 35.7245C22.9436 35.7323 22.9505 35.7384 22.9552 35.7426C22.9576 35.7447 22.9595 35.7464 22.9608 35.7476C22.9615 35.7482 22.9621 35.7487 22.9625 35.749C22.9627 35.7492 22.9629 35.7494 22.963 35.7495C22.9632 35.7497 22.9633 35.7498 23.625 35ZM26 21.875C26 23.1867 24.9367 24.25 23.625 24.25V26.25C26.0412 26.25 28 24.2912 28 21.875H26ZM23.625 19.5C24.9367 19.5 26 20.5633 26 21.875H28C28 19.4588 26.0412 17.5 23.625 17.5V19.5ZM21.25 21.875C21.25 20.5633 22.3133 19.5 23.625 19.5V17.5C21.2088 17.5 19.25 19.4588 19.25 21.875H21.25ZM23.625 24.25C22.3133 24.25 21.25 23.1867 21.25 21.875H19.25C19.25 24.2912 21.2088 26.25 23.625 26.25V24.25Z" fill="white"/>
</g>
</g>
<defs>
<clipPath id="clip0_128_1059">
<rect width="24" height="24" fill="white" transform="translate(12 12)"/>
</clipPath>
<clipPath id="clip1_128_1059">
<rect width="24" height="24" fill="white" transform="translate(12 12)"/>
</clipPath>
</defs>
</svg>
