<svg width="24" height="24" viewBox="0 0 24 24" fill="none" xmlns="http://www.w3.org/2000/svg">
<g clip-path="url(#clip0_4001_999)">
<g clip-path="url(#clip1_4001_999)">
<path d="M11.625 23L10.9633 23.7498L11.625 24.3337L12.2867 23.7498L11.625 23ZM19.25 10.625C19.25 11.5476 18.8192 12.7287 18.039 14.0636C17.2731 15.374 16.2377 16.7205 15.1805 17.9454C14.1265 19.1666 13.0696 20.2454 12.2747 21.0201C11.8779 21.4069 11.5477 21.7164 11.3178 21.9284C11.2028 22.0344 11.113 22.1159 11.0525 22.1704C11.0223 22.1976 10.9994 22.2181 10.9843 22.2315C10.9768 22.2382 10.9713 22.2432 10.9677 22.2463C10.966 22.2479 10.9647 22.249 10.964 22.2496C10.9636 22.25 10.9634 22.2502 10.9633 22.2503C10.9632 22.2503 10.9632 22.2503 10.9632 22.2503C10.9632 22.2503 10.9633 22.2502 11.625 23C12.2867 23.7498 12.2868 23.7497 12.287 23.7495C12.2871 23.7494 12.2873 23.7492 12.2875 23.749C12.2879 23.7487 12.2885 23.7482 12.2892 23.7476C12.2905 23.7464 12.2924 23.7447 12.2948 23.7426C12.2995 23.7384 12.3064 23.7323 12.3152 23.7245C12.3327 23.7088 12.3583 23.686 12.3912 23.6563C12.457 23.597 12.5525 23.5103 12.6734 23.3989C12.9152 23.176 13.2589 22.8537 13.6706 22.4524C14.4929 21.6511 15.5922 20.5294 16.6945 19.2522C17.7935 17.9788 18.9144 16.5292 19.7657 15.0728C20.6027 13.6407 21.25 12.0842 21.25 10.625H19.25ZM11.625 3C15.8362 3 19.25 6.41383 19.25 10.625H21.25C21.25 5.30926 16.9407 1 11.625 1V3ZM4 10.625C4 6.41383 7.41383 3 11.625 3V1C6.30926 1 2 5.30926 2 10.625H4ZM11.625 23C12.2867 22.2502 12.2868 22.2503 12.2868 22.2503C12.2868 22.2503 12.2868 22.2503 12.2867 22.2503C12.2866 22.2502 12.2864 22.25 12.286 22.2496C12.2853 22.249 12.284 22.2479 12.2823 22.2463C12.2787 22.2432 12.2732 22.2382 12.2657 22.2315C12.2506 22.2181 12.2277 22.1976 12.1975 22.1704C12.137 22.1159 12.0472 22.0344 11.9322 21.9284C11.7023 21.7164 11.3721 21.4069 10.9753 21.0201C10.1804 20.2454 9.12347 19.1666 8.06953 17.9454C7.01229 16.7205 5.97692 15.374 5.211 14.0636C4.43082 12.7287 4 11.5476 4 10.625H2C2 12.0842 2.64731 13.6407 3.48431 15.0728C4.33558 16.5292 5.45646 17.9788 6.55547 19.2522C7.65778 20.5294 8.75714 21.6511 9.57941 22.4524C9.99114 22.8537 10.3348 23.176 10.5766 23.3989C10.6975 23.5103 10.793 23.597 10.8588 23.6563C10.8917 23.686 10.9173 23.7088 10.9348 23.7245C10.9436 23.7323 10.9505 23.7384 10.9552 23.7426C10.9576 23.7447 10.9595 23.7464 10.9608 23.7476C10.9615 23.7482 10.9621 23.7487 10.9625 23.749C10.9627 23.7492 10.9629 23.7494 10.963 23.7495C10.9632 23.7497 10.9633 23.7498 11.625 23ZM14 9.875C14 11.1867 12.9367 12.25 11.625 12.25V14.25C14.0412 14.25 16 12.2912 16 9.875H14ZM11.625 7.5C12.9367 7.5 14 8.56332 14 9.875H16C16 7.45875 14.0412 5.5 11.625 5.5V7.5ZM9.25 9.875C9.25 8.56332 10.3133 7.5 11.625 7.5V5.5C9.20875 5.5 7.25 7.45875 7.25 9.875H9.25ZM11.625 12.25C10.3133 12.25 9.25 11.1867 9.25 9.875H7.25C7.25 12.2912 9.20875 14.25 11.625 14.25V12.25Z" fill="white"/>
</g>
</g>
<defs>
<clipPath id="clip0_4001_999">
<rect width="24" height="24" fill="white"/>
</clipPath>
<clipPath id="clip1_4001_999">
<rect width="24" height="24" fill="white"/>
</clipPath>
</defs>
</svg>
