<svg width="64" height="60" viewBox="0 0 64 60" fill="none" xmlns="http://www.w3.org/2000/svg">
<g clip-path="url(#clip0_4001_990)">
<path d="M28.8813 0.122694C28.4543 0.31452 27.7944 0.96673 27.445 1.54221C26.8627 2.50134 26.358 2.69316 22.4374 3.46047C14.4794 5.03345 8.07434 7.18191 7.37559 8.52469C6.63804 9.86748 7.88025 11.1336 10.6364 11.8625C12.3833 12.3613 13.1984 12.131 13.1984 11.0952C13.1984 10.6348 12.7326 10.1744 11.9562 9.82912L10.6752 9.33036L11.8398 8.86998C13.0432 8.40959 23.2137 5.80075 23.796 5.80075C24.223 5.80075 21.4669 9.25364 16.5369 14.8166C12.6938 19.1519 12.3833 19.4205 10.0541 20.1877C7.1815 21.1469 6.40512 22.0293 7.60851 22.9884C8.42371 23.6406 8.38489 23.679 4.23126 28.091C1.90213 30.5464 0 32.8099 0 33.1168C0 33.769 0.776379 34.5748 1.39749 34.5748C1.6304 34.5748 4.61945 31.659 7.9967 28.0526L14.1301 21.5305L21.9327 18.9984C40.8375 12.7833 51.7844 7.48883 52.6385 3.99759C52.949 2.84663 52.0174 1.7724 50.1153 1.12019C47.825 0.352886 38.1978 0.698173 31.8704 1.84913C30.7834 2.04096 30.5894 1.96423 30.7834 1.46548C31.1328 0.583078 29.8905 -0.337689 28.8813 0.122694ZM49.2612 3.46047C49.7271 3.7674 49.7271 3.92086 49.3389 4.4196C47.9802 6.03094 40.4105 9.4071 28.3378 13.8191C24.1842 15.3154 20.1082 16.8116 19.2541 17.1185C17.8567 17.6556 17.7791 17.6173 18.3225 17.0034C20.8846 14.0877 25.6593 8.33287 26.7851 6.87499C27.5226 5.87749 28.4931 4.99508 28.9201 4.87999C29.6965 4.68817 37.6932 3.6523 40.3717 3.38374C43.2831 3.07682 48.7566 3.15355 49.2612 3.46047Z" fill="#F6F1E9"/>
<path d="M59.2762 2.65335C58.1648 4.16302 51.1723 11.4826 43.7629 18.9852C30.7039 32.1147 27.7401 34.4935 32.0931 28.3634C34.2233 25.3898 34.2697 24.3834 32.371 23.3312C31.1206 22.6907 31.0281 22.6908 30.1019 23.7887C28.3885 25.8473 25.1006 32.8466 25.1006 34.4478C25.1006 36.1862 26.814 38.1533 28.1569 37.8788C28.62 37.7873 34.6865 31.886 41.679 24.7036C48.6716 17.5213 54.6916 11.4826 55.1085 11.2539C55.6178 10.9336 55.5253 11.3453 54.7843 12.6263C48.3011 23.2854 45.2447 29.7815 42.0032 39.5715C37.789 52.152 38.4316 55.9538 40.2839 58.6987C41.1638 60.0253 42.4604 60.2541 43.3403 59.2019C43.8033 58.6072 43.8033 58.3327 43.1551 57.6923C42.7383 57.2348 42.4141 56.274 42.4141 55.5878C42.4141 52.7515 45.8467 39.0225 48.9031 31.3827C50.4776 27.4485 58.9983 11.2081 62.3325 5.67267C63.2587 4.20876 63.9997 2.6076 63.9997 2.19588C63.9997 1.46392 62.3789 0 61.5917 0C61.4064 0 60.3413 1.18943 59.2762 2.65335Z" fill="#F6F1E9"/>
</g>
<defs>
<clipPath id="clip0_4001_990">
<rect width="64" height="60" fill="white"/>
</clipPath>
</defs>
</svg>
