<svg width="48" height="48" viewBox="0 0 48 48" fill="none" xmlns="http://www.w3.org/2000/svg">
<circle cx="24" cy="24" r="23" stroke="#100F0F" stroke-width="2"/>
<path d="M12.333 18.1666L17.478 13.0216C17.6951 12.8032 17.9532 12.63 18.2375 12.5118C18.5219 12.3937 18.8268 12.333 19.1347 12.3333H28.8647C29.1726 12.333 29.4775 12.3937 29.7618 12.5118C30.0461 12.63 30.3043 12.8032 30.5213 13.0216L35.6663 18.1666" stroke="black" stroke-width="2" stroke-linecap="round" stroke-linejoin="round"/>
<path d="M14.667 24V33.3333C14.667 33.9522 14.9128 34.5457 15.3504 34.9832C15.788 35.4208 16.3815 35.6667 17.0003 35.6667H31.0003C31.6192 35.6667 32.2127 35.4208 32.6502 34.9832C33.0878 34.5457 33.3337 33.9522 33.3337 33.3333V24" stroke="black" stroke-width="2" stroke-linecap="round" stroke-linejoin="round"/>
<path d="M27.5 35.6667V31.0001C27.5 30.3812 27.2542 29.7878 26.8166 29.3502C26.379 28.9126 25.7855 28.6667 25.1667 28.6667H22.8333C22.2145 28.6667 21.621 28.9126 21.1834 29.3502C20.7458 29.7878 20.5 30.3812 20.5 31.0001V35.6667" stroke="black" stroke-width="2" stroke-linecap="round" stroke-linejoin="round"/>
<path d="M12.333 18.1667H35.6663" stroke="black" stroke-width="2" stroke-linecap="round" stroke-linejoin="round"/>
<path d="M35.6663 18.1667V21.6667C35.6663 22.2856 35.4205 22.8791 34.9829 23.3167C34.5453 23.7542 33.9518 24.0001 33.333 24.0001C32.6514 23.9626 32.0004 23.7046 31.478 23.2651C31.3388 23.1645 31.1714 23.1103 30.9997 23.1103C30.8279 23.1103 30.6605 23.1645 30.5213 23.2651C29.999 23.7046 29.348 23.9626 28.6663 24.0001C27.9847 23.9626 27.3337 23.7046 26.8113 23.2651C26.6721 23.1645 26.5048 23.1103 26.333 23.1103C26.1613 23.1103 25.9939 23.1645 25.8547 23.2651C25.3323 23.7046 24.6813 23.9626 23.9997 24.0001C23.318 23.9626 22.667 23.7046 22.1447 23.2651C22.0055 23.1645 21.8381 23.1103 21.6663 23.1103C21.4946 23.1103 21.3272 23.1645 21.188 23.2651C20.6657 23.7046 20.0147 23.9626 19.333 24.0001C18.6514 23.9626 18.0004 23.7046 17.478 23.2651C17.3388 23.1645 17.1714 23.1103 16.9997 23.1103C16.8279 23.1103 16.6605 23.1645 16.5213 23.2651C15.999 23.7046 15.348 23.9626 14.6663 24.0001C14.0475 24.0001 13.454 23.7542 13.0164 23.3167C12.5788 22.8791 12.333 22.2856 12.333 21.6667V18.1667" stroke="black" stroke-width="2" stroke-linecap="round" stroke-linejoin="round"/>
</svg>
