<svg width="48" height="48" viewBox="0 0 48 48" fill="none" xmlns="http://www.w3.org/2000/svg">
<circle cx="24" cy="24" r="23" stroke="#100F0F" stroke-width="2"/>
<path d="M21.0006 32H18.0899V14.7333H26.0079C27.9319 14.7333 29.3626 15.2513 30.2259 16.238C31.1139 17.2247 31.5579 18.5813 31.5579 20.2587C31.5579 21.492 31.2619 22.528 30.6453 23.3667C30.0533 24.23 29.1653 24.8467 28.0306 25.1673C28.3513 25.414 28.5979 25.6607 28.7706 25.932C28.9433 26.2033 29.1406 26.5487 29.3133 26.9927L31.4839 32H28.4746L26.3533 27.19C26.1559 26.7213 25.9339 26.4007 25.6626 26.2033C25.3666 26.006 24.8979 25.9073 24.2319 25.9073H21.0006V32ZM21.0006 23.5393H25.2433C26.2793 23.5393 27.1179 23.268 27.7346 22.75C28.3266 22.232 28.6473 21.418 28.6473 20.2587C28.6473 18.1127 27.5866 17.0273 25.5146 17.0273H21.0006V23.5393Z" fill="black"/>
<circle cx="24" cy="24" r="16" stroke="#100F0F" stroke-width="2"/>
<circle cx="24" cy="24" r="16" stroke="#100F0F" stroke-width="2"/>
</svg>
