<svg width="48" height="48" viewBox="0 0 48 48" fill="none" xmlns="http://www.w3.org/2000/svg">
<circle cx="24" cy="24" r="23" stroke="#100F0F" stroke-width="2"/>
<circle cx="24" cy="24" r="16" stroke="#100F0F" stroke-width="2"/>
<path d="M39.105 28.75H31.9167C31.0768 28.75 30.2714 29.0836 29.6775 29.6775C29.0836 30.2714 28.75 31.0768 28.75 31.9167V39.105" stroke="black" stroke-width="2" stroke-linecap="round" stroke-linejoin="round"/>
<path d="M16.083 10.2883V12.9167C16.083 14.1764 16.5835 15.3846 17.4743 16.2754C18.365 17.1662 19.5732 17.6667 20.833 17.6667C21.6729 17.6667 22.4783 18.0003 23.0722 18.5942C23.666 19.188 23.9997 19.9935 23.9997 20.8333C23.9997 22.575 25.4247 24 27.1663 24C28.0062 24 28.8116 23.6664 29.4055 23.0725C29.9994 22.4786 30.333 21.6732 30.333 20.8333C30.333 19.0917 31.758 17.6667 33.4997 17.6667H38.5188" stroke="black" stroke-width="2" stroke-linecap="round" stroke-linejoin="round"/>
<path d="M22.4169 39.7542V33.5001C22.4169 32.6602 22.0833 31.8548 21.4894 31.2609C20.8956 30.667 20.0901 30.3334 19.2503 30.3334C18.4104 30.3334 17.605 29.9998 17.0111 29.4059C16.4172 28.8121 16.0836 28.0066 16.0836 27.1667V25.5834C16.0836 24.7436 15.75 23.9381 15.1561 23.3442C14.5622 22.7504 13.7568 22.4167 12.9169 22.4167H8.24609" stroke="black" stroke-width="2" stroke-linecap="round" stroke-linejoin="round"/>
<path d="M24.0003 39.8334C32.7448 39.8334 39.8337 32.7446 39.8337 24.0001C39.8337 15.2556 32.7448 8.16675 24.0003 8.16675C15.2558 8.16675 8.16699 15.2556 8.16699 24.0001C8.16699 32.7446 15.2558 39.8334 24.0003 39.8334Z" stroke="black" stroke-width="2" stroke-linecap="round" stroke-linejoin="round"/>
</svg>
