<svg width="56" height="56" viewBox="0 0 56 56" fill="none" xmlns="http://www.w3.org/2000/svg">
<path d="M24.2161 3.66405C26.3253 1.62165 29.6747 1.62165 31.7839 3.66405V3.66405C33.1352 4.9725 35.0665 5.49 36.891 5.03248V5.03248C39.7388 4.31833 42.6395 5.99304 43.445 8.81642V8.81642C43.961 10.6252 45.3748 12.039 47.1836 12.555V12.555C50.007 13.3605 51.6817 16.2612 50.9675 19.109V19.109C50.51 20.9335 51.0275 22.8648 52.3359 24.2161V24.2161C54.3783 26.3253 54.3783 29.6747 52.3359 31.7839V31.7839C51.0275 33.1352 50.51 35.0665 50.9675 36.891V36.891C51.6817 39.7388 50.007 42.6395 47.1836 43.445V43.445C45.3748 43.961 43.961 45.3748 43.445 47.1836V47.1836C42.6395 50.007 39.7388 51.6817 36.891 50.9675V50.9675C35.0665 50.51 33.1352 51.0275 31.7839 52.3359V52.3359C29.6747 54.3783 26.3253 54.3783 24.2161 52.3359V52.3359C22.8648 51.0275 20.9335 50.51 19.109 50.9675V50.9675C16.2612 51.6817 13.3605 50.007 12.555 47.1836V47.1836C12.039 45.3748 10.6252 43.961 8.81642 43.445V43.445C5.99304 42.6395 4.31833 39.7388 5.03248 36.891V36.891C5.49 35.0665 4.9725 33.1352 3.66405 31.7839V31.7839C1.62165 29.6747 1.62165 26.3253 3.66405 24.2161V24.2161C4.9725 22.8648 5.49 20.9335 5.03248 19.109V19.109C4.31833 16.2612 5.99304 13.3605 8.81642 12.555V12.555C10.6252 12.039 12.039 10.6252 12.555 8.81642V8.81642C13.3605 5.99304 16.2612 4.31833 19.109 5.03248V5.03248C20.9335 5.49 22.8648 4.9725 24.2161 3.66405V3.66405Z" fill="#A570BF"/>
<path d="M38 27.0801V28.0001C37.9988 30.1565 37.3005 32.2548 36.0093 33.9819C34.7182 35.7091 32.9033 36.9726 30.8354 37.584C28.7674 38.1954 26.5573 38.122 24.5345 37.3747C22.5117 36.6274 20.7847 35.2462 19.611 33.4372C18.4373 31.6281 17.8798 29.4882 18.0217 27.3364C18.1636 25.1847 18.9972 23.1364 20.3983 21.4972C21.7994 19.8579 23.6928 18.7155 25.7962 18.2403C27.8996 17.765 30.1003 17.9824 32.07 18.8601" stroke="#FFE700" stroke-width="2" stroke-linecap="round" stroke-linejoin="round"/>
<path d="M25 27L28 30L38 20" stroke="#FFE700" stroke-width="2" stroke-linecap="round" stroke-linejoin="round"/>
</svg>
